<svg width="128" height="128" xmlns="http://www.w3.org/2000/svg">
 <g id="Layer_1">
  <title>Layer 1</title>
  <path d="m13.64932,50.16184c0,0.19268 0,0.19268 0,0.19268c0,0 0.05643,0.13625 0.19268,0c0.27249,-0.27249 0.12205,-0.96772 0.19268,-1.54143c0.09707,-0.78848 0.44022,-2.10498 0.77071,-3.4682c0.46296,-1.90962 0.75214,-4.24238 1.15607,-6.35838c0.36844,-1.93009 0.84329,-3.83186 1.15607,-5.00963c0.25217,-0.94955 0.53754,-1.74922 0.77071,-2.31214c0.16488,-0.39805 0.44179,-0.63447 0.57803,-0.77071c0.13624,-0.13624 0.05643,-0.13624 0.19268,0c0.13624,0.13624 0.17578,0.58394 0.38536,1.15607c0.35689,0.9743 1.06419,2.05828 1.7341,3.27553c0.91497,1.66251 1.46536,3.31073 2.11946,4.62428c0.69245,1.39055 1.28109,2.54254 1.7341,3.27553c0.50648,0.81951 0.96339,1.34875 1.34875,1.7341c0.38536,0.38536 0.44179,0.63447 0.57804,0.77071c0.13624,0.13625 0.19268,0 0.19268,0l-0.19268,-0.19268l0,-0.19268" id="svg_7" stroke="#000" fill="none"/>
  <path d="m37.15606,48.42774c0,-0.19268 0.13361,-0.28108 0.38536,-0.38536c0.17801,-0.07373 0.90924,-0.83049 1.54142,-1.34875c1.0745,-0.88088 2.56281,-1.64093 5.39499,-3.46821c2.55994,-1.65163 5.63162,-3.19059 8.67052,-4.81696c2.73923,-1.46599 6.13699,-2.95156 7.32177,-3.46821c1.50901,-0.65803 2.4369,-1.15077 3.27553,-1.34875c0.56257,-0.1328 0.77071,-0.19268 0.77071,-0.19268c0,0.19268 0.07373,0.20735 0,0.38536c-0.10428,0.25175 -0.38535,0.57804 -0.57803,1.15607c-0.19268,0.57803 -0.57803,1.34875 -0.96339,2.11946c-0.38536,0.77071 -1.04269,1.61927 -1.7341,2.50481c-0.83846,1.07389 -1.7341,2.11946 -2.31214,2.89017c-0.57804,0.77071 -0.96339,1.34875 -1.34875,1.92678l-0.19268,0.38536l-0.19268,0.19268l-0.19268,0" id="svg_8" stroke="#000" fill="none"/>
  <path d="m13.45664,50.73988c0,0 0,0 0,-0.19268c0,0 0,0 0,0c0.19268,0 0.19268,-0.19268 0.38536,-0.19268c0,0 0.19268,-0.19268 0.57803,-0.19268c0.38536,0 0.77649,-0.09851 1.54143,-0.19268c0.78848,-0.09706 1.54143,-0.19268 2.89017,-0.38536c1.34875,-0.19268 2.89604,-0.34801 4.23892,-0.57803c1.93673,-0.33175 3.47271,-0.5374 5.39499,-0.77071c1.35251,-0.16416 3.07386,-0.67419 4.62428,-0.77071c1.15384,-0.07183 2.51068,-0.15533 3.85357,-0.38536c0.96836,-0.16587 1.74794,-0.13318 2.69749,-0.38535c0.58889,-0.15639 1.13267,-0.28776 1.7341,-0.38536c0.38038,-0.06173 0.77071,-0.19268 1.15607,-0.19268c0.57804,0 0.77071,0 1.15607,0c0.38536,0 0.77071,0.19268 1.15607,0.19268c0.38535,0 0.77071,0 1.34875,0c0.38536,0 0.96339,0 1.54142,0c0.57803,0 1.13267,0.09508 1.7341,0.19268c0.57057,0.09259 1.15607,0 1.7341,0c0.38536,0 0.96339,0 1.34875,0c0.38536,0 0.57803,0 0.96339,0c0.19268,0 0.38536,0 0.57804,0c0,0 0.19268,0 0.38535,0c0,0 0.19268,0 0.38536,0c0.19268,0 0.38536,0 0.77071,0c0.19268,0 0.19268,0 0.57803,0c0.19268,0 0.32629,0.0884 0.57804,0.19268c0.17801,0.07373 0.38536,0 0.57803,0c0.19268,0 0.24911,-0.13625 0.38536,0c0.13624,0.13624 0,0.19268 0,0.19268c0.19268,0 0.11894,0.01467 0.19268,0.19268c0.10428,0.25175 0.19268,0.19268 0.38536,0.57804c0,0 0.04521,0.22201 0.19268,0.57803c0.10427,0.25175 0.28637,0.35139 0.38536,0.77071c0.08854,0.37505 0.28637,0.92943 0.38535,1.34875c0.08854,0.37505 0.09369,0.92943 0.19268,1.34875c0.08854,0.37505 0,0.57803 0,0.96339c0,0.38536 0.19268,0.77071 0.19268,0.96339c0,0.38536 0.19268,0.77071 0.19268,1.15607c0,0.38536 -0.09369,0.73675 -0.19268,1.15607c-0.1328,0.56257 -0.05987,0.97886 -0.19268,1.54142c-0.09899,0.41932 -0.25771,0.83044 -0.57803,1.34875c-0.28651,0.46358 -0.57804,0.96339 -0.96339,1.54143c-0.38536,0.57803 -0.77071,1.15607 -1.15607,1.7341c-0.38536,0.57803 -0.71563,1.00417 -1.15607,1.54142c-0.34551,0.42146 -0.96339,0.96339 -1.34875,1.34875c-0.38536,0.38536 -1.00418,0.71563 -1.54142,1.15607c-0.42146,0.34551 -0.8115,0.71563 -1.34875,1.15607c-0.42145,0.3455 -1.02312,0.64306 -1.54142,0.96339c-0.46359,0.28651 -0.94056,0.61469 -1.54143,0.96339c-0.37263,0.21626 -0.97135,0.35592 -1.7341,0.57803c-0.58501,0.17036 -1.15171,0.21107 -1.92678,0.38535c-0.95853,0.21554 -1.71981,0.28855 -2.69749,0.38536c-0.9587,0.09493 -1.71981,0.09587 -2.69749,0.19268c-0.9587,0.09493 -2.11946,0 -3.27553,0c-0.96339,0 -2.1092,-0.0961 -3.46821,-0.19268c-0.96097,-0.0683 -1.90508,-0.26526 -3.08285,-0.57803c-0.94956,-0.25217 -2.10552,-0.43001 -3.27553,-0.77071c-0.76275,-0.22211 -1.69665,-0.66444 -2.50482,-0.96339c-0.74509,-0.27563 -1.35671,-0.5486 -2.11946,-0.77071c-0.585,-0.17035 -1.14338,-0.60583 -1.54143,-0.77071c-0.56292,-0.23317 -0.88516,-0.48421 -1.34875,-0.77071c-0.5183,-0.32033 -0.99923,-0.51879 -1.34875,-0.77071c-0.44211,-0.31866 -0.77071,-0.57804 -1.15607,-0.96339c-0.19268,-0.19267 -0.57803,-0.38535 -0.77071,-0.57803c-0.38536,-0.38536 -0.57803,-0.57803 -0.96339,-0.96339c-0.38536,-0.38536 -0.83742,-0.52128 -1.15607,-0.96339c-0.25192,-0.34952 -0.64474,-0.71396 -0.96339,-1.15607c-0.25192,-0.34952 -0.55446,-0.78343 -0.77071,-1.15607c-0.34869,-0.60086 -0.85085,-0.91735 -1.15607,-1.54142c-0.2677,-0.54734 -0.2577,-1.02312 -0.57803,-1.54143c-0.14326,-0.23179 -0.28637,-0.54408 -0.38536,-0.96339c-0.04427,-0.18752 0,-0.57803 0,-0.77071c0,-0.19268 -0.07374,-0.40002 0,-0.57804c0.10428,-0.25174 0.28108,-0.32629 0.38536,-0.57803c0.07374,-0.17801 0.11894,-0.5927 0.19268,-0.77071c0.10428,-0.25174 0.11895,-0.40002 0.19268,-0.57803c0.10428,-0.25175 0.34109,-0.39051 0.38536,-0.57803c0.09899,-0.41932 0.31162,-0.40002 0.38536,-0.57804c0.10428,-0.25174 0.13361,-0.28108 0.38536,-0.38536c0.17801,-0.07373 0.13361,-0.0884 0.38536,-0.19268c0.17801,-0.07373 0.40002,0.07373 0.57803,0c0.25175,-0.10428 0.19268,-0.19268 0.38536,-0.19268l0.19268,0" id="svg_9" stroke="#000" fill="none"/>
  <path d="m25.78805,55.17147c0,0 0,0 0,-0.19268c0,-0.19268 -0.22603,-0.35698 -0.38536,-0.57803c-0.25192,-0.34952 -0.61387,-0.71148 -0.96339,-0.96339c-0.44211,-0.31865 -0.77071,-0.77071 -1.34875,-1.15607c-0.57803,-0.38536 -0.87652,-0.76207 -1.54143,-0.96339c-0.36882,-0.11167 -0.77071,-0.19268 -1.15607,-0.38536l-0.19268,0l0,0" id="svg_10" stroke="#000" fill="none"/>
  <path d="m36.96338,55.36415c0,0 0,0 0,0c0.19268,0 0.38536,0 0.57803,0c0.19268,0 0.77868,0.02944 1.54142,-0.19268c0.58501,-0.17035 1.34875,-0.38536 2.31214,-0.77071c0.96339,-0.38536 1.92678,-0.77071 2.69749,-1.15607c0.77071,-0.38535 1.34875,-0.57803 1.92678,-1.15607c0.19268,-0.19268 0.38536,-0.38536 0.57804,-0.57803c0,0 0,-0.19268 0,0l0,0l0,0" id="svg_11" stroke="#000" fill="none"/>
  <path d="m42.55105,56.90558c-0.19268,0 -0.38535,0 -0.38535,0c-0.38536,0.19268 -0.51897,0.28108 -0.77071,0.38536c-0.17801,0.07374 -0.38536,0.38536 -0.38536,0.77071c0,0.38536 0.10022,0.83308 0.38536,1.15607c0.45976,0.52081 0.77071,0.38536 1.34875,0.57803c0.57803,0.19268 1.32535,0.28776 1.92678,0.38536c0.76076,0.12346 1.51803,-0.09508 2.11946,-0.19268c0.57057,-0.09259 0.96339,-0.19268 1.15607,-0.38536c0.19268,-0.19268 0.19268,-0.57803 0,-0.96339c-0.19268,-0.38536 -0.46606,-0.85142 -0.77071,-1.15607c-0.30465,-0.30465 -0.65874,-0.46606 -0.96339,-0.77071c-0.30465,-0.30465 -0.54408,-0.67172 -0.96339,-0.77071c-0.37505,-0.08854 -0.77071,-0.19268 -1.15607,-0.19268c-0.38536,0 -0.57803,0 -0.96339,0c-0.38536,0 -0.54408,0.28637 -0.96339,0.38536c-0.37505,0.08854 -0.57804,0.19268 -0.77071,0.38536l0,0l0,0l0,0" id="svg_12" stroke="#000" fill="none"/>
  <path d="m22.12716,55.36415c-0.19268,0 -0.38536,0 -0.77071,0c-0.38535,0 -0.77898,-0.05584 -0.96339,0c-0.6649,0.20132 -1.00418,0.52295 -1.54143,0.96339c-0.21073,0.17276 -0.38536,0.57804 -0.57804,0.77071c-0.19268,0.19268 -0.34014,0.60737 -0.19268,0.96339c0.10427,0.25175 0.38535,0.57804 0.77071,0.96339c0.38536,0.38535 0.68385,0.76207 1.34875,0.96339c0.36882,0.11167 0.96339,0.19268 1.54143,0.19268c0.57804,0 0.90433,-0.0884 1.15607,-0.19268c0.17801,-0.07373 0.47376,-0.32629 0.57804,-0.57804c0.14747,-0.35602 -0.10414,-0.9737 -0.19268,-1.34875c-0.09899,-0.41931 -0.5188,-0.80655 -0.77071,-1.15607c-0.15933,-0.22105 -0.57803,-0.38536 -0.77071,-0.57804c-0.19268,-0.19268 -0.38536,-0.38535 -0.38536,-0.38535c-0.19268,0 -0.19268,0 -0.38535,0l0,0l0,0l0,0" id="svg_13" stroke="#000" fill="none"/>
  <path d="m20.20038,58.06165c0.19268,0 0.19268,0 0.19268,0c0,0 0,0 0.19268,0c0,0 0,0 0.19268,0c0,0 0,0 0,0c0.19268,-0.19268 0.19268,-0.19268 0.19268,-0.19268c0,-0.19268 0,-0.19268 0,-0.19268c-0.19268,0 -0.19268,0 -0.19268,0c0,0 0,0.19268 0,0.19268c0,0 0,0.19268 0,0.19268c-0.19268,0 0,0 0,0c0,0 0.19268,0 0.19268,0c0,-0.19268 0,-0.19268 0,-0.19268c0,0.19268 -0.19268,0.19268 -0.19268,0.19268c0,0.19268 0.13624,0.24911 0,0.38536c-0.13624,0.13625 -0.19268,0 0,0c0,0 0,-0.19268 0,-0.38536c0,0 0,0 0,-0.19268c0,0 0,-0.19268 0,-0.19268c0,0 -0.19268,0 -0.19268,0c0,0 -0.19268,0 -0.19268,0.19268c0,0 0,0.19268 0,0.38536c0,0 0,0 0,0c0,0 -0.13625,-0.05643 0,-0.19268c0.13624,-0.13625 0.05643,-0.05643 0.19268,-0.19268c0.13624,-0.13625 0.19268,0 0.19268,0c0,0 0,0 0,0c0,0.19268 -0.19268,0.38536 -0.19268,0.77071c0,0 0,0.19268 0,0.19268c0,-0.19268 0.19268,-0.19268 0.19268,-0.38536c0,0 0.0884,-0.13361 0.19268,-0.38536c0.07373,-0.17801 0,-0.38535 0,-0.38535l0,0l0,0" id="svg_14" stroke="#000" fill="none"/>
  <path d="m44.47783,57.86897c-0.19268,0.19268 -0.19268,0.19268 -0.19268,0.38536c0,0 0,0.19268 0,0.19268c0,0 0,0.19268 0.19268,0.19268c0,0 0,0 0,0c0,0 0.19268,0 0.19268,0c0.19268,0 0.19268,-0.19268 0.38536,-0.19268c0,0 0.19268,-0.19268 0.19268,-0.38536c0,0 0,0 0,-0.19268c0,0 -0.19268,0 -0.19268,0c-0.19268,0 -0.24911,-0.13625 -0.38536,0c-0.13624,0.13624 -0.11894,0.20734 -0.19268,0.38536c-0.10428,0.25175 -0.19268,0.19268 -0.19268,0.38536c0,0 0,0.19268 0.19268,0.19268c0,0 0,0 0.19268,0c0,0 0.19268,0 0.19268,0c0.19268,-0.19268 0.19268,-0.19268 0.38535,-0.38536c0,0 0,-0.19268 0,-0.19268c0,0 0,0 0,0l0,0l-0.19268,0l0,0" id="svg_15" stroke="#000" fill="none"/>
  <path d="m28.29286,59.60307c-0.19268,0 -0.24911,-0.13625 -0.38536,0c-0.13624,0.13624 -0.19268,0.38536 -0.38536,0.57803c-0.19268,0.19268 -0.38535,0.38536 -0.77071,0.77071c-0.19268,0.19268 -0.19268,0.38536 -0.19268,0.57803c0,0 0,0.19268 0,0.38536c0,0.19268 0.19268,0.38536 0.19268,0.38536c0.19268,0.19268 0.40002,0.31162 0.57804,0.38536c0.25174,0.10427 0.57803,0.19268 0.77071,0.19268c0.19268,0 0.57804,0 0.77071,0c0.19268,0 0.44179,-0.05643 0.57803,-0.19268c0.13624,-0.13624 0.11894,-0.40002 0.19268,-0.57803c0.10428,-0.25175 0.19268,-0.38536 0.19268,-0.38536c0.19268,-0.19268 0.19268,-0.19268 0.19268,-0.19268c0,-0.19268 0,0 0.19268,0c0,0 0,0 0,0.19268c0,0 0.05643,0.24911 0.19268,0.38536c0.13624,0.13624 0.40002,0.11894 0.57803,0.19268c0.25175,0.10428 0.51897,0.28108 0.77071,0.38536c0.53403,0.2212 0.96339,0 1.34875,0c0.57803,0 0.96339,0.19268 1.54142,0.19268c0.38536,0 0.77071,0 1.15607,0c0.38536,0 0.66644,0.05907 0.77071,-0.19268c0.07373,-0.17801 0.11894,-0.20734 0.19268,-0.38536c0.10428,-0.25175 0.19268,-0.38536 0.19268,-0.57803c0,-0.19268 0.07373,-0.5927 0,-0.77071c-0.10428,-0.25175 -0.05644,-0.44179 -0.19268,-0.57803c-0.13624,-0.13624 -0.05643,-0.05643 -0.19268,-0.19268c-0.13625,-0.13625 -0.38536,0 -0.57803,0c0,0 -0.19268,-0.19268 -0.19268,-0.19268l0,0l-0.19268,0" id="svg_16" stroke="#000" fill="none"/>
  <path d="m27.90751,66.73217c0,0 0,0 0,0c0,0.19267 0,0.19267 0,0.19267c0.19268,0.19268 0.20734,0.31163 0.38536,0.38536c0.25174,0.10427 0.4212,0.32611 0.77071,0.57803c0.22105,0.15932 0.57804,0.19268 0.96339,0.38535c0.38536,0.19268 0.73675,0.28637 1.15607,0.38536c0.56257,0.1328 0.97886,0.05987 1.54143,0.19267c0.41932,0.09899 0.74731,0.28776 1.34875,0.38536c0.38038,0.06173 0.77071,0 1.34875,0c0.38536,0 0.77071,0.19268 1.15607,0.19268c0.38536,0 0.96339,0 1.15607,0c0.38536,0 0.77071,0 1.15607,0c0.38536,0 0.54407,-0.09369 0.96339,-0.19268c0.37505,-0.08854 0.54408,-0.09369 0.96339,-0.19268c0.37505,-0.08854 0.77072,-0.19268 0.96339,-0.38535c0.19268,-0.19268 0.57803,-0.38536 0.77071,-0.57803c0.19268,-0.19268 0.32612,-0.4212 0.57804,-0.77071c0.15933,-0.22105 0.38535,-0.19268 0.57803,-0.38536c0.19268,-0.19267 0.19268,-0.38535 0.38536,-0.38535c0,0 0,-0.19268 0,-0.19268c0,0 0,0 0,-0.19268c0,0 0.19268,0 0.19268,-0.19267c0,0 0.0884,-0.13361 0.19268,-0.38536c0.07373,-0.17801 -0.0884,-0.13361 -0.19268,-0.38535c-0.14747,-0.35603 -0.19268,-0.57803 -0.38536,-0.77071c-0.19268,-0.19268 -0.53892,-0.43478 -0.77071,-0.57803c-0.5183,-0.32034 -0.92943,-0.47905 -1.34875,-0.57804c-0.18753,-0.04427 -0.38536,0 -0.57804,0c0,0 0,0 0,0c0,0 0,0 0,0.19268c0,0 0,0 0,0c-0.19268,0.19268 -0.19268,0.38536 -0.19268,0.38536c0,0.19268 -0.19268,0.19268 -0.19268,0.38535c0,0.19268 -0.11894,0.20734 -0.19268,0.38536c-0.10427,0.25174 -0.38536,0.38535 -0.57803,0.57803c-0.19268,0.19268 -0.35698,0.22603 -0.57804,0.38535c-0.34952,0.25191 -0.51896,0.28108 -0.77071,0.38536c-0.17801,0.07374 -0.24911,0.05643 -0.38536,0.19267c-0.13625,0.13625 -0.38536,0.19268 -0.57804,0.19268c0,0 -0.13361,0.0884 -0.38535,0.19268c-0.17801,0.07374 -0.15872,0.09369 -0.57804,0.19268c-0.18752,0.04427 -0.3514,0.09369 -0.77071,0.19267c-0.18753,0.04427 -0.57804,0.19268 -0.77071,0.19268c-0.19268,0 -0.57804,0.19268 -0.77071,0.19268c-0.19268,0 -0.57803,0 -0.77071,0c-0.19268,0 -0.58319,0.04427 -0.77071,0c-0.41932,-0.09899 -0.57804,-0.19268 -0.77071,-0.19268c-0.19268,0 -0.32629,-0.0884 -0.57804,-0.19268c-0.17801,-0.07374 -0.38536,-0.19267 -0.57804,-0.19267c-0.19268,0 -0.19268,0 -0.38536,-0.19268c0,0 0.13625,-0.05643 0,-0.19268c-0.13624,-0.13625 -0.19268,0 -0.19268,-0.19268c0,0 0,0 -0.19268,-0.19267c0,0 0,0 0,0c0,-0.19268 0,-0.19268 0,-0.19268c0,-0.19268 -0.19268,-0.19268 -0.19268,-0.19268c0,0 -0.19268,-0.19267 -0.19268,-0.19267c-0.38536,0 -0.51897,-0.0884 -0.77071,-0.19268c-0.17801,-0.07374 -0.38536,0 -0.57804,0c-0.19268,0 -0.38536,0 -0.38536,0c0,0 -0.19268,0 -0.19268,0.19268c0,0 -0.19268,0 -0.19268,0c0,0.19267 0,0.19267 -0.19268,0.38535c0,0 0,0.19268 0,0.19268c0,0 -0.19268,0.19267 -0.19268,0.38535c0,0 0,0.19268 0,0.38536c0,0.19267 0,0.38535 0,0.57803c0,0 0.19268,0.19267 0.19268,0.19267c0.19268,0 0.19268,0 0.38536,0c0,0 0.19268,0 0.19268,0c0,0 0,0 0,-0.19267l0,0" id="svg_17" stroke="#000" fill="none"/>
  <path d="m58.9287,51.31791c-0.19268,0 -0.19268,0 -0.19268,0.19268c0,0 0,0 0,0c0.19268,0.19268 0.3514,0.28637 0.77071,0.38535c0.56257,0.1328 1.54424,0.13572 2.11946,0.19268c0.97769,0.09681 2.11946,0.19268 3.08285,0.19268c0.96339,0 2.11946,0 3.08285,0c1.15607,0 2.10751,0.09601 3.27554,0.19268c0.96011,0.07946 1.7341,0 2.31213,0c0.77071,0 1.34875,0 1.73411,0c0.57803,0 0.73676,-0.09369 1.15607,-0.19268c0.37505,-0.08854 0.57803,0 0.96339,0c0.19267,0 0.57803,0 0.77071,0c0.19268,0 0.57804,0.19268 0.96339,0.19268c0.19268,0 0.57803,0 0.77071,0c0.38535,0 0.77071,0 1.15607,0c0.19268,0 0.57803,0 0.77071,0c0.19268,0 0.38536,0 0.57803,0.19268c0,0 0.19268,0 0.19268,0c0.19268,0 0.20734,0.11895 0.38535,0.19268c0.25175,0.10427 0.13361,0.28108 0.38536,0.38535c0.17802,0.07373 0.38535,0.19268 0.57803,0.38536c0.19268,0.19268 0.38535,0.38536 0.57803,0.57804c0.19268,0.19268 0.4212,0.13344 0.77071,0.38536c0.22105,0.15933 0.40002,0.31162 0.57803,0.38535c0.25175,0.10428 0.32629,0.28108 0.57803,0.38536c0.17802,0.07374 0.20734,0.11894 0.38536,0.19268c0.25174,0.10427 0.24911,0.24911 0.38535,0.38536c0.13625,0.13625 0.19268,0.19268 0.38536,0.38535c0,0 0.05643,0.05644 0.19267,0.19268c0.13625,0.13624 0.28108,0.32629 0.38536,0.57803c0.07374,0.17801 0.11894,0.40002 0.19268,0.57804c0.10427,0.25174 0.38535,0.57803 0.38535,0.57803c0.19268,0.19268 0.31162,0.40002 0.38535,0.57803c0.10428,0.25175 0.38536,0.38535 0.57804,0.57803c0.19267,0.19268 0.44179,0.24911 0.57803,0.38536c0.13625,0.13625 0.20734,0.31162 0.38535,0.38536c0.25175,0.10428 0.40002,0.31162 0.57803,0.38536c0.25175,0.10428 0.4212,0.32612 0.77071,0.57803c0.22105,0.15933 0.3514,0.28637 0.77071,0.38536c0.18752,0.04427 0.39052,0.14841 0.57803,0.19268c0.41932,0.09899 0.5927,0.11894 0.77071,0.19268c0.25175,0.10428 0.38536,0.19268 0.57803,0.19268c0.38536,0 0.58319,-0.04427 0.77071,0c0.41932,0.09899 0.57803,0.19268 0.77071,0.19268c0.38535,0 0.57803,0 0.77071,0c0.38535,0 0.77071,0 0.96339,0c0.38536,0 0.77071,0 1.15607,0c0.38535,0 0.77071,-0.19268 1.15607,-0.19268c0.38536,0 0.77071,-0.19268 0.96339,-0.19268c0.57803,0 0.97369,-0.10414 1.34875,-0.19268c0.41931,-0.09899 0.57803,-0.19268 0.77071,-0.38536c0.19267,-0.19268 0.57803,-0.19268 0.77071,-0.38536c0.19268,-0.19268 0.38536,-0.19268 0.57804,-0.38536c0.19267,-0.19268 0.41469,-0.23788 0.77071,-0.38536c0.25174,-0.10427 0.41871,-0.35698 0.57803,-0.57803c0.25191,-0.34951 0.32611,-0.61387 0.57803,-0.96339c0.15933,-0.22106 0.46606,-0.46606 0.77071,-0.77071c0.30465,-0.30465 0.38535,-0.77071 0.57803,-1.15607c0.19268,-0.38536 0.38535,-0.77071 0.57803,-1.15607c0.19268,-0.38536 0.57803,-0.77071 0.77071,-1.15607c0.19268,-0.38536 0.32362,-0.96836 0.38535,-1.34875c0.0976,-0.60143 0.22049,-1.14338 0.38536,-1.54142c0.23317,-0.56292 0.28775,-0.93999 0.38535,-1.54143c0.09259,-0.57057 0.23976,-1.15896 0.19268,-1.54142c-0.09707,-0.78848 -0.34486,-1.55654 -0.57803,-2.11946c-0.32975,-0.79609 -0.38536,-1.34875 -0.38536,-1.92678c0,-0.38535 0,-0.77071 0,-1.15607c0,-0.19268 -0.08854,-0.58834 0,-0.96339c0.09899,-0.41932 0.14841,-0.77587 0.19268,-0.96339c0.09899,-0.41932 0.13344,-0.61388 0.38535,-0.96339c0.15932,-0.22105 0.38536,-0.57803 0.57804,-0.77071c0.19267,-0.19268 0.38535,-0.38535 0.57803,-0.57803c0.19267,-0.19268 0.40002,-0.31162 0.57803,-0.38536c0.25175,-0.10427 0.38535,-0.19268 0.77071,-0.19268c0.38535,0 0.96836,0.13095 1.34875,0.19268c0.60143,0.0976 0.9785,0.34486 1.54143,0.57804c0.39804,0.16488 0.93501,0.4187 1.15607,0.57803c0.34951,0.25191 0.77071,0.38535 0.96339,0.57803c0.19267,0.19268 0.19267,0.38536 0.38535,0.57803c0.19268,0.19268 0.29681,0.58834 0.38535,0.96339c0.09899,0.41932 0.19268,0.57803 0.19268,0.96339c0,0.38536 0.28122,0.9737 0.19268,1.34875c-0.09899,0.41932 -0.05988,0.78618 -0.19268,1.34875c-0.09899,0.41932 -0.10414,0.78102 -0.19268,1.15607c-0.09898,0.41931 -0.19267,0.77071 -0.19267,1.15607c0,0.19268 -0.28108,0.51897 -0.38536,0.77071c-0.14747,0.35602 -0.28107,0.51897 -0.38535,0.77071c-0.14747,0.35602 -0.19268,0.57803 -0.38536,0.96339c-0.19267,0.38536 -0.41871,0.74234 -0.57803,0.96339c-0.25192,0.34952 -0.45206,0.71396 -0.77071,1.15607c-0.25191,0.34952 -0.32612,0.61387 -0.57803,0.96339c-0.31865,0.44211 -0.45206,0.71396 -0.77071,1.15607c-0.25191,0.34951 -0.4187,0.74233 -0.57803,0.96339c-0.25192,0.34952 -0.47904,0.54407 -0.57803,0.96339c-0.04427,0.18752 -0.22603,0.35698 -0.38535,0.57803c-0.25191,0.34952 -0.27339,0.46606 -0.57804,0.77071c-0.30465,0.30465 -0.38535,0.57803 -0.57803,0.77071c-0.38535,0.38536 -0.57803,0.77071 -0.77071,0.96339c-0.38535,0.38536 -0.5043,0.5927 -0.57803,0.77071c-0.10428,0.25175 -0.38535,0.38536 -0.57803,0.57803c-0.19268,0.19268 -0.24911,0.24911 -0.38535,0.38536c-0.13625,0.13624 0,0.38536 -0.19268,0.38536c0,0 0.13625,0.24911 0,0.38536c-0.13625,0.13625 -0.05643,0.24911 -0.19268,0.38536c-0.13625,0.13625 -0.19268,0.19268 -0.19268,0.38535c0,0.19268 -0.19267,0.19268 -0.19267,0.38536c0,0.38536 -0.0884,0.51897 -0.19268,0.77072c-0.07373,0.17801 -0.11894,0.40002 -0.19268,0.57803c-0.10427,0.25174 -0.11893,0.5927 -0.19267,0.77071c-0.10428,0.25174 -0.34109,0.39051 -0.38536,0.57803c-0.09899,0.41931 -0.28108,0.51897 -0.38535,0.77071c-0.07373,0.17801 -0.11894,0.40002 -0.19268,0.57803c-0.10428,0.25174 -0.24911,0.24911 -0.38535,0.38535c-0.27249,0.27249 -0.28108,0.32629 -0.38536,0.57803c-0.14748,0.35603 -0.19268,0.38536 -0.38535,0.57803c-0.19268,0.19268 -0.51897,0.28108 -0.77071,0.38536c-0.17802,0.07374 -0.57803,0.19268 -0.77071,0.19268c-0.19268,0 -0.38536,0 -0.77071,0c-0.19268,0 -0.57803,0 -0.96339,0c-0.57803,0 -0.96339,-0.19268 -1.54142,-0.19268c-0.57803,0 -1.15607,0 -1.54143,0c-0.57803,0 -0.96339,0 -1.34875,0c-0.57803,0 -0.96339,0 -1.34875,0c-0.38536,0 -0.77071,0 -0.96339,0c-0.19267,0 -0.38535,0 -0.38535,0c-0.19268,0 -0.19268,0 -0.38536,0c0,0 -0.19267,0 -0.38535,0c-0.19268,0 -0.38535,0 -0.77071,0c-0.19268,0 -0.57803,0 -0.77071,0c-0.19267,0 -0.57803,0 -0.77071,0c-0.19267,0 -0.40002,-0.07374 -0.57803,0c-0.25175,0.10428 -0.38535,0.19268 -0.38535,0.19268c-0.19268,0.19267 -0.38536,0.38535 -0.38536,0.57803c0,0.19267 -0.19267,0.38535 -0.19267,0.57803c0,0.38535 0,0.57803 0,0.96339c0,0.38535 -0.19268,0.77071 -0.19268,1.15607c0,0.57803 -0.19268,0.96339 -0.19268,1.54143c0,0.57803 0,0.96339 0,1.54142c0,0.38536 0,0.96339 0,1.34875c0,0.57804 0,0.96339 0,1.54143c0,0.38536 0,0.77071 0,1.15607c0,0.57804 0,0.96339 0,1.34875c0,0.57804 0,0.96339 0,1.34875c0,0.57804 -0.09369,0.92944 -0.19268,1.34875c-0.1328,0.56257 0.0405,0.9785 -0.19267,1.54142c-0.16488,0.39805 -0.13344,0.80656 -0.38536,1.15607c-0.15932,0.22105 -0.35698,0.61138 -0.57803,0.77071c-0.34952,0.25191 -0.57803,0.19268 -0.96339,0.19268c-0.57804,0 -0.92944,-0.09369 -1.34875,-0.19268c-0.37505,-0.08854 -0.60737,-0.0452 -0.96339,-0.19267c-0.25175,-0.10428 -0.57803,-0.57803 -0.77071,-0.77071c-0.38535,-0.38536 -0.53376,-0.58319 -0.57803,-0.77071c-0.09899,-0.41931 -0.38536,-0.77071 -0.38536,-1.15607c0,-0.19268 0,-0.57803 0,-0.96339c0,-0.38535 0.04521,-0.80005 0.19268,-1.15607c0.10428,-0.25175 0.19268,-0.77071 0.38536,-1.15607c0.19267,-0.38535 0.28636,-0.73675 0.38535,-1.15607c0.08854,-0.37505 0.10415,-0.78102 0.19268,-1.15607c0.09898,-0.41932 0.15218,-0.78583 0.38535,-1.34875c0.16488,-0.39805 0.28776,-0.74731 0.38536,-1.34875c0.06173,-0.38039 0.09369,-0.92944 0.19267,-1.34875c0.1328,-0.56257 0.09369,-0.92944 0.19268,-1.34875c0.08854,-0.37505 0.0884,-0.71165 0.19268,-0.96339c0.14747,-0.35602 0,-0.57803 0,-0.96339c0,-0.19268 -0.22604,-0.54966 -0.38536,-0.77071c-0.25192,-0.34952 -0.31162,-0.5927 -0.38535,-0.77071c-0.10428,-0.25175 -0.19268,-0.38536 -0.19268,-0.38536c-0.19268,0 -0.24911,-0.24911 -0.38535,-0.38535c-0.13625,-0.13625 -0.38536,-0.19268 -0.57803,-0.19268c-0.38536,0 -0.54408,0.09369 -0.96339,0.19268c-0.18752,0.04427 -0.57804,0.38535 -0.96339,0.96339c-0.38536,0.57804 -0.73022,1.36387 -0.96339,1.92679c-0.32976,0.79609 -0.68777,1.56705 -0.96339,2.31213c-0.29896,0.80816 -0.68234,1.29146 -0.96339,1.92678c-0.32139,0.72652 -0.25256,1.17154 -0.38536,1.73411c-0.09899,0.41931 -0.38535,0.96339 -0.38535,1.54143c0,0.38535 -0.13095,0.77569 -0.19268,1.15607c-0.0976,0.60143 -0.38535,0.96339 -0.38535,1.34875c0,0.38535 -0.19268,0.77071 -0.19268,1.15607c0,0.57804 -0.28637,0.92944 -0.38536,1.34875c-0.08854,0.37505 -0.0452,0.60738 -0.19267,0.96339c-0.10428,0.25175 -0.38536,0.38535 -0.38536,0.38535c0,0.19268 -0.19267,0.19268 -0.19267,0.19268c0,0 0,0 -0.19268,0c0,0 -0.19268,0 -0.38536,-0.19268c-0.19267,-0.19267 -0.51879,-0.4212 -0.77071,-0.77071c-0.15932,-0.22105 -0.38537,-0.38536 -0.57804,-0.77071c-0.19268,-0.38536 -0.41315,-0.95071 -0.57803,-1.34875c-0.23318,-0.56293 -0.38535,-1.15607 -0.57803,-1.73411c-0.19268,-0.57803 -0.28776,-0.93999 -0.38535,-1.54143c-0.06172,-0.38038 -0.19268,-0.77071 -0.19268,-1.34875c0,-0.38535 0,-0.57803 0,-0.96339c0,-0.19268 0,-0.57803 0,-0.96339c0,-0.38535 0.09369,-0.54408 0.19268,-0.96339c0.08854,-0.37505 0.05987,-0.59351 0.19267,-1.15607c0.09899,-0.41931 0.28637,-0.73676 0.38536,-1.15607c0.08854,-0.37505 0.19267,-0.77071 0.19267,-0.96339c0,-0.57803 0.0884,-0.90432 0.19268,-1.15607c0.14747,-0.35602 0,-0.77071 0,-0.96339c0,-0.38535 0,-0.57803 0,-0.77071c0,-0.38536 0,-0.38536 0,-0.57804c0,-0.19267 0,-0.38535 0,-0.57803c0,0 -0.19268,-0.19267 -0.19268,-0.19267c-0.19267,-0.19268 -0.05643,-0.24911 -0.19267,-0.38536c-0.13625,-0.13625 -0.38536,0 -0.57803,0c-0.19268,0 -0.38536,0 -0.57804,0c-0.38535,0 -0.77071,0 -1.15607,0c-0.57803,0 -1.15607,0.19268 -1.15607,0.19268c-1.15607,0.19268 -1.55654,0.34486 -2.11946,0.57803c-0.79609,0.32975 -1.34875,0.57803 -2.11946,0.77071c-0.77071,0.19268 -1.3587,0.26189 -2.11946,0.38535c-0.60143,0.0976 -1.13267,0.28776 -1.7341,0.38536c-0.57057,0.09259 -0.9737,0.10413 -1.34875,0.19267c-0.41932,0.09899 -0.57803,0.19268 -0.96339,0.19268c-0.19268,0 -0.38536,0 -0.57803,0c-0.38536,0 -0.57804,0 -0.77071,0c-0.38536,0 -0.73675,0.09369 -1.15607,0.19268c-0.18752,0.04427 -0.77071,0 -1.15607,0c-0.38536,0 -0.77071,0 -1.34875,0c-0.38536,0 -0.96339,0 -1.34875,0c-0.19268,0 -0.57804,0 -0.96339,0c-0.38535,0 -0.57803,0.19268 -0.77071,0.19268c-0.38536,0 -0.57804,0 -0.77071,0c-0.19268,0 -0.19268,0 -0.38536,0c0,0 0,0 0,0c0,0 0,0 -0.19268,0c0,0 0,0.19267 0,0.19267c0,0 -0.19268,0 -0.19268,0c0,0 -0.19268,0 -0.19268,0c0,0 -0.19268,0 -0.19268,0c0,0 -0.19268,0 -0.19268,0c0,0 0,0 -0.19268,0c0,0 0,0.19268 -0.19268,0.19268c0,0 -0.19268,0 -0.19268,0c-0.19268,0.19268 -0.19268,0.19268 -0.19268,0.19268c-0.19268,0 -0.24911,0.05643 -0.38536,0.19268c-0.13624,0.13625 -0.19268,0 -0.19268,0c-0.19268,0 -0.38536,0.19267 -0.38536,0.19267c-0.19268,0 -0.38536,0 -0.38536,0c-0.19268,0.19268 -0.19268,0.19268 -0.38536,0.19268c0,0 0,0 0,0c-0.19268,0 -0.05643,0.05643 -0.19268,0.19268c-0.13625,0.13625 -0.19268,0 -0.19268,0c-0.19268,0.19267 -0.10414,0.39566 -0.19268,0.77071c-0.09899,0.41931 -0.19268,0.77071 -0.19268,1.34875c0,0.38535 -0.19268,0.96339 -0.19268,1.54142c0,0.38536 0,0.96339 0,1.15607c0,0.57803 0.09259,0.97085 0,1.54142c-0.0976,0.60144 -0.13572,1.15889 -0.19268,1.73411c-0.09681,0.97768 -0.35593,1.54939 -0.57804,2.31213c-0.17035,0.58501 -0.60584,1.14339 -0.77071,1.54143c-0.23317,0.56292 -0.38535,1.15607 -0.57803,1.54143c-0.19268,0.38535 -0.35698,0.61139 -0.57803,0.77071c-0.34952,0.25192 -0.32629,0.28108 -0.57803,0.38535c-0.17801,0.07374 -0.19268,0 -0.38536,0c0,0 -0.19268,0 -0.19268,0c-0.19268,0 -0.19268,0 -0.38536,0c0,0 -0.11895,-0.01466 -0.19268,-0.19267c-0.10427,-0.25175 -0.38536,-0.38536 -0.57803,-0.77071c-0.19268,-0.38536 -0.23788,-0.60737 -0.38536,-0.96339c-0.10428,-0.25175 -0.47376,-0.51897 -0.57804,-0.77071c-0.07373,-0.17801 0,-0.57803 0,-0.77071c0,-0.19267 0,-0.38535 0,-0.77071c0,-0.19267 0,-0.57803 0,-0.77071c0,-0.38536 -0.04427,-0.5832 0,-0.77071c0.09899,-0.41932 0.11895,-0.5927 0.19268,-0.77071c0.10427,-0.25175 0.28108,-0.51897 0.38536,-0.77071c0.07373,-0.17802 0.0884,-0.51897 0.19268,-0.77071c0.14746,-0.35602 0,-0.57803 0,-0.96339c0,-0.38536 0.08854,-0.78102 0,-1.15607c-0.09899,-0.41931 -0.28637,-0.73676 -0.38536,-1.15607c-0.08854,-0.37505 -0.19268,-0.57803 -0.19268,-0.96339c0,-0.19267 -0.19268,-0.38535 -0.19268,-0.38535c0,-0.19268 -0.05643,-0.24911 -0.19268,-0.38536c-0.13624,-0.13625 -0.19268,0 -0.19268,0c0,0 -0.11895,0.20734 -0.19268,0.38536c-0.10427,0.25175 -0.34486,0.59315 -0.57803,1.15607c-0.16488,0.39805 -0.38536,0.96339 -0.57804,1.54143c-0.19268,0.57803 -0.53754,1.17118 -0.77071,1.7341c-0.16488,0.39805 -0.47376,0.90433 -0.57804,1.15607c-0.2212,0.53403 -0.0884,0.71165 -0.19268,0.96339c-0.14747,0.35603 -0.19268,0.77071 -0.19268,0.96339c0,0.38535 -0.09369,0.54408 -0.19268,0.96339c-0.04427,0.18752 0.04427,0.5832 0,0.77071c-0.09899,0.41932 -0.28108,0.71165 -0.38536,0.96339c-0.07373,0.17802 -0.0884,0.51897 -0.19268,0.77071c-0.07373,0.17802 -0.19268,0.38535 -0.19268,0.38535c-0.19268,0.38536 -0.28108,0.32629 -0.38535,0.57803c-0.07374,0.17802 -0.19268,0.38536 -0.19268,0.38536c-0.19268,0.19268 -0.38536,0.38535 -0.38536,0.38535c-0.19268,0.19268 -0.38536,0.38536 -0.57803,0.38536c0,0 -0.19268,0 -0.38536,0c0,0 -0.19268,-0.19268 -0.19268,-0.19268c-0.19268,0 -0.28108,0.05907 -0.38536,-0.19268c-0.07373,-0.17801 -0.19268,-0.38535 -0.19268,-0.57803c0,-0.19268 -0.14841,-0.58319 -0.19268,-0.77071c-0.09899,-0.41931 -0.28637,-0.73676 -0.38536,-1.15607c-0.08854,-0.37505 0,-0.77071 0,-1.15607c0,-0.19268 -0.19268,-0.57804 -0.19268,-0.96339c0,-0.38535 0,-0.77071 0,-0.96339c0,-0.38535 0.19268,-0.77071 0.19268,-0.96339c0,-0.19268 -0.07373,-0.40002 0,-0.57803c0.10427,-0.25175 0.19268,-0.38536 0.19268,-0.57803c0,-0.19268 0.19268,-0.38536 0.19268,-0.57804c0,-0.19267 0.0884,-0.32629 0.19268,-0.57803c0.14746,-0.35602 -0.07374,-0.5927 0,-0.77071c0.10428,-0.25174 0.19268,-0.38535 0.19268,-0.77071c0,-0.19267 0,-0.19267 0,-0.38535c0,-0.19268 0,-0.38535 0,-0.38535c0,-0.19268 0,-0.38536 0,-0.38536c0,0 0,-0.19268 0,-0.38535c0,-0.19268 0,-0.19268 0,-0.38536c0,-0.19267 0,-0.38535 0,-0.38535c0,-0.19268 0,-0.19268 0,-0.38536c0,-0.19267 -0.0884,-0.32629 -0.19268,-0.57803c-0.07373,-0.17801 0,-0.19267 0,-0.38535c0,-0.19268 0,-0.38536 0,-0.38536c0,-0.19267 0,-0.38535 0,-0.57803c0,0 0,-0.19267 0,-0.19267c0,-0.19268 0,-0.19268 0,-0.19268c0,-0.19268 0,-0.19268 -0.19268,-0.19268c0,0 0,-0.19268 0,-0.19268c0,0 0,0 0,-0.19267c0,0 0,0 0,0l0,-0.19268l0,0l0,0" id="svg_18" stroke="#000" fill="none"/>
 </g>
</svg>